<svg xmlns="http://www.w3.org/2000/svg" xmlns:xlink="http://www.w3.org/1999/xlink" width="150" zoomAndPan="magnify" viewBox="0 0 112.5 93.749997" height="125" preserveAspectRatio="xMidYMid meet" version="1.0"><defs><g/></defs><g fill="#000000" fill-opacity="0.302"><g transform="translate(32.155562, 33.747542)"><g><path d="M 10.050781 -11.5625 C 7.863281 -12.183594 6.292969 -12.96875 6.292969 -14.992188 C 6.292969 -16.480469 7.105469 -18.855469 8.96875 -18.855469 L 10.050781 -18.855469 L 15.238281 -12.886719 C 15.507812 -12.535156 15.914062 -12.183594 16.101562 -12.183594 L 16.289062 -12.183594 C 16.585938 -12.183594 16.667969 -12.375 16.667969 -12.671875 L 16.667969 -18.289062 C 16.667969 -18.722656 16.507812 -18.964844 16.074219 -18.992188 L 10.050781 -19.234375 L 8.835938 -19.234375 C 3.566406 -19.234375 1.757812 -16.398438 1.757812 -14.019531 C 1.757812 -10.996094 3.429688 -8.835938 8.347656 -7.347656 C 10.753906 -6.617188 12.480469 -6.132812 12.480469 -3.753906 C 12.480469 -2.269531 11.589844 -0.109375 9.808594 -0.109375 L 8.484375 -0.109375 L 3.296875 -6.078125 C 3.027344 -6.429688 2.621094 -6.78125 2.429688 -6.78125 L 2.242188 -6.78125 C 1.945312 -6.78125 1.863281 -6.59375 1.863281 -6.292969 L 1.863281 -0.675781 C 1.863281 -0.242188 2.027344 0 2.457031 0.0273438 L 8.484375 0.269531 L 9.941406 0.269531 C 15.210938 0.269531 17.398438 -2.378906 17.398438 -5.621094 C 17.398438 -9.078125 13.777344 -10.507812 10.050781 -11.5625 Z M 10.050781 -11.5625 "/></g></g></g><g fill="#000000" fill-opacity="0.302"><g transform="translate(51.305796, 33.747542)"><g><path d="M 9.726562 0.269531 C 14.128906 0.269531 16.101562 -1.808594 16.101562 -6.292969 L 16.101562 -18.207031 C 16.101562 -18.640625 15.9375 -18.910156 15.507812 -18.910156 L 12.480469 -18.910156 C 12.347656 -18.910156 12.292969 -18.828125 12.292969 -18.722656 L 12.292969 -11.699219 C 12.292969 -11.507812 12.292969 -11.375 12.480469 -11.15625 L 15.777344 -6.835938 L 15.777344 -6.292969 C 15.777344 -1.703125 13.210938 -0.109375 10.183594 -0.109375 L 9.726562 -0.109375 C 7.644531 -0.109375 6.699219 -1.484375 6.699219 -6.292969 L 6.699219 -18.207031 C 6.699219 -18.640625 6.539062 -18.910156 6.105469 -18.910156 L 2.214844 -18.910156 C 1.78125 -18.910156 1.621094 -18.640625 1.621094 -18.207031 L 1.621094 -6.292969 C 1.621094 -1.808594 4 0.269531 9.726562 0.269531 Z M 9.726562 0.269531 "/></g></g></g><g fill="#000000" fill-opacity="0.302"><g transform="translate(69.024492, 33.747542)"><g><path d="M 10.050781 -11.5625 C 7.863281 -12.183594 6.292969 -12.96875 6.292969 -14.992188 C 6.292969 -16.480469 7.105469 -18.855469 8.96875 -18.855469 L 10.050781 -18.855469 L 15.238281 -12.886719 C 15.507812 -12.535156 15.914062 -12.183594 16.101562 -12.183594 L 16.289062 -12.183594 C 16.585938 -12.183594 16.667969 -12.375 16.667969 -12.671875 L 16.667969 -18.289062 C 16.667969 -18.722656 16.507812 -18.964844 16.074219 -18.992188 L 10.050781 -19.234375 L 8.835938 -19.234375 C 3.566406 -19.234375 1.757812 -16.398438 1.757812 -14.019531 C 1.757812 -10.996094 3.429688 -8.835938 8.347656 -7.347656 C 10.753906 -6.617188 12.480469 -6.132812 12.480469 -3.753906 C 12.480469 -2.269531 11.589844 -0.109375 9.808594 -0.109375 L 8.484375 -0.109375 L 3.296875 -6.078125 C 3.027344 -6.429688 2.621094 -6.78125 2.429688 -6.78125 L 2.242188 -6.78125 C 1.945312 -6.78125 1.863281 -6.59375 1.863281 -6.292969 L 1.863281 -0.675781 C 1.863281 -0.242188 2.027344 0 2.457031 0.0273438 L 8.484375 0.269531 L 9.941406 0.269531 C 15.210938 0.269531 17.398438 -2.378906 17.398438 -5.621094 C 17.398438 -9.078125 13.777344 -10.507812 10.050781 -11.5625 Z M 10.050781 -11.5625 "/></g></g></g><g fill="#000000" fill-opacity="0.502"><g transform="translate(30.961211, 32.553191)"><g><path d="M 10.050781 -11.5625 C 7.863281 -12.183594 6.292969 -12.96875 6.292969 -14.992188 C 6.292969 -16.480469 7.105469 -18.855469 8.96875 -18.855469 L 10.050781 -18.855469 L 15.238281 -12.886719 C 15.507812 -12.535156 15.914062 -12.183594 16.101562 -12.183594 L 16.289062 -12.183594 C 16.585938 -12.183594 16.667969 -12.375 16.667969 -12.671875 L 16.667969 -18.289062 C 16.667969 -18.722656 16.507812 -18.964844 16.074219 -18.992188 L 10.050781 -19.234375 L 8.835938 -19.234375 C 3.566406 -19.234375 1.757812 -16.398438 1.757812 -14.019531 C 1.757812 -10.996094 3.429688 -8.835938 8.347656 -7.347656 C 10.753906 -6.617188 12.480469 -6.132812 12.480469 -3.753906 C 12.480469 -2.269531 11.589844 -0.109375 9.808594 -0.109375 L 8.484375 -0.109375 L 3.296875 -6.078125 C 3.027344 -6.429688 2.621094 -6.78125 2.429688 -6.78125 L 2.242188 -6.78125 C 1.945312 -6.78125 1.863281 -6.59375 1.863281 -6.292969 L 1.863281 -0.675781 C 1.863281 -0.242188 2.027344 0 2.457031 0.0273438 L 8.484375 0.269531 L 9.941406 0.269531 C 15.210938 0.269531 17.398438 -2.378906 17.398438 -5.621094 C 17.398438 -9.078125 13.777344 -10.507812 10.050781 -11.5625 Z M 10.050781 -11.5625 "/></g></g></g><g fill="#000000" fill-opacity="0.502"><g transform="translate(50.111444, 32.553191)"><g><path d="M 9.726562 0.269531 C 14.128906 0.269531 16.101562 -1.808594 16.101562 -6.292969 L 16.101562 -18.207031 C 16.101562 -18.640625 15.9375 -18.910156 15.507812 -18.910156 L 12.480469 -18.910156 C 12.347656 -18.910156 12.292969 -18.828125 12.292969 -18.722656 L 12.292969 -11.699219 C 12.292969 -11.507812 12.292969 -11.375 12.480469 -11.15625 L 15.777344 -6.835938 L 15.777344 -6.292969 C 15.777344 -1.703125 13.210938 -0.109375 10.183594 -0.109375 L 9.726562 -0.109375 C 7.644531 -0.109375 6.699219 -1.484375 6.699219 -6.292969 L 6.699219 -18.207031 C 6.699219 -18.640625 6.539062 -18.910156 6.105469 -18.910156 L 2.214844 -18.910156 C 1.78125 -18.910156 1.621094 -18.640625 1.621094 -18.207031 L 1.621094 -6.292969 C 1.621094 -1.808594 4 0.269531 9.726562 0.269531 Z M 9.726562 0.269531 "/></g></g></g><g fill="#000000" fill-opacity="0.502"><g transform="translate(67.830141, 32.553191)"><g><path d="M 10.050781 -11.5625 C 7.863281 -12.183594 6.292969 -12.96875 6.292969 -14.992188 C 6.292969 -16.480469 7.105469 -18.855469 8.96875 -18.855469 L 10.050781 -18.855469 L 15.238281 -12.886719 C 15.507812 -12.535156 15.914062 -12.183594 16.101562 -12.183594 L 16.289062 -12.183594 C 16.585938 -12.183594 16.667969 -12.375 16.667969 -12.671875 L 16.667969 -18.289062 C 16.667969 -18.722656 16.507812 -18.964844 16.074219 -18.992188 L 10.050781 -19.234375 L 8.835938 -19.234375 C 3.566406 -19.234375 1.757812 -16.398438 1.757812 -14.019531 C 1.757812 -10.996094 3.429688 -8.835938 8.347656 -7.347656 C 10.753906 -6.617188 12.480469 -6.132812 12.480469 -3.753906 C 12.480469 -2.269531 11.589844 -0.109375 9.808594 -0.109375 L 8.484375 -0.109375 L 3.296875 -6.078125 C 3.027344 -6.429688 2.621094 -6.78125 2.429688 -6.78125 L 2.242188 -6.78125 C 1.945312 -6.78125 1.863281 -6.59375 1.863281 -6.292969 L 1.863281 -0.675781 C 1.863281 -0.242188 2.027344 0 2.457031 0.0273438 L 8.484375 0.269531 L 9.941406 0.269531 C 15.210938 0.269531 17.398438 -2.378906 17.398438 -5.621094 C 17.398438 -9.078125 13.777344 -10.507812 10.050781 -11.5625 Z M 10.050781 -11.5625 "/></g></g></g><g fill="#000000" fill-opacity="1"><g transform="translate(29.766858, 31.358839)"><g><path d="M 10.050781 -11.5625 C 7.863281 -12.183594 6.292969 -12.96875 6.292969 -14.992188 C 6.292969 -16.480469 7.105469 -18.855469 8.96875 -18.855469 L 10.050781 -18.855469 L 15.238281 -12.886719 C 15.507812 -12.535156 15.914062 -12.183594 16.101562 -12.183594 L 16.289062 -12.183594 C 16.585938 -12.183594 16.667969 -12.375 16.667969 -12.671875 L 16.667969 -18.289062 C 16.667969 -18.722656 16.507812 -18.964844 16.074219 -18.992188 L 10.050781 -19.234375 L 8.835938 -19.234375 C 3.566406 -19.234375 1.757812 -16.398438 1.757812 -14.019531 C 1.757812 -10.996094 3.429688 -8.835938 8.347656 -7.347656 C 10.753906 -6.617188 12.480469 -6.132812 12.480469 -3.753906 C 12.480469 -2.269531 11.589844 -0.109375 9.808594 -0.109375 L 8.484375 -0.109375 L 3.296875 -6.078125 C 3.027344 -6.429688 2.621094 -6.78125 2.429688 -6.78125 L 2.242188 -6.78125 C 1.945312 -6.78125 1.863281 -6.59375 1.863281 -6.292969 L 1.863281 -0.675781 C 1.863281 -0.242188 2.027344 0 2.457031 0.0273438 L 8.484375 0.269531 L 9.941406 0.269531 C 15.210938 0.269531 17.398438 -2.378906 17.398438 -5.621094 C 17.398438 -9.078125 13.777344 -10.507812 10.050781 -11.5625 Z M 10.050781 -11.5625 "/></g></g></g><g fill="#000000" fill-opacity="1"><g transform="translate(48.917092, 31.358839)"><g><path d="M 9.726562 0.269531 C 14.128906 0.269531 16.101562 -1.808594 16.101562 -6.292969 L 16.101562 -18.207031 C 16.101562 -18.640625 15.9375 -18.910156 15.507812 -18.910156 L 12.480469 -18.910156 C 12.347656 -18.910156 12.292969 -18.828125 12.292969 -18.722656 L 12.292969 -11.699219 C 12.292969 -11.507812 12.292969 -11.375 12.480469 -11.15625 L 15.777344 -6.835938 L 15.777344 -6.292969 C 15.777344 -1.703125 13.210938 -0.109375 10.183594 -0.109375 L 9.726562 -0.109375 C 7.644531 -0.109375 6.699219 -1.484375 6.699219 -6.292969 L 6.699219 -18.207031 C 6.699219 -18.640625 6.539062 -18.910156 6.105469 -18.910156 L 2.214844 -18.910156 C 1.78125 -18.910156 1.621094 -18.640625 1.621094 -18.207031 L 1.621094 -6.292969 C 1.621094 -1.808594 4 0.269531 9.726562 0.269531 Z M 9.726562 0.269531 "/></g></g></g><g fill="#000000" fill-opacity="1"><g transform="translate(66.635788, 31.358839)"><g><path d="M 10.050781 -11.5625 C 7.863281 -12.183594 6.292969 -12.96875 6.292969 -14.992188 C 6.292969 -16.480469 7.105469 -18.855469 8.96875 -18.855469 L 10.050781 -18.855469 L 15.238281 -12.886719 C 15.507812 -12.535156 15.914062 -12.183594 16.101562 -12.183594 L 16.289062 -12.183594 C 16.585938 -12.183594 16.667969 -12.375 16.667969 -12.671875 L 16.667969 -18.289062 C 16.667969 -18.722656 16.507812 -18.964844 16.074219 -18.992188 L 10.050781 -19.234375 L 8.835938 -19.234375 C 3.566406 -19.234375 1.757812 -16.398438 1.757812 -14.019531 C 1.757812 -10.996094 3.429688 -8.835938 8.347656 -7.347656 C 10.753906 -6.617188 12.480469 -6.132812 12.480469 -3.753906 C 12.480469 -2.269531 11.589844 -0.109375 9.808594 -0.109375 L 8.484375 -0.109375 L 3.296875 -6.078125 C 3.027344 -6.429688 2.621094 -6.78125 2.429688 -6.78125 L 2.242188 -6.78125 C 1.945312 -6.78125 1.863281 -6.59375 1.863281 -6.292969 L 1.863281 -0.675781 C 1.863281 -0.242188 2.027344 0 2.457031 0.0273438 L 8.484375 0.269531 L 9.941406 0.269531 C 15.210938 0.269531 17.398438 -2.378906 17.398438 -5.621094 C 17.398438 -9.078125 13.777344 -10.507812 10.050781 -11.5625 Z M 10.050781 -11.5625 "/></g></g></g><g fill="#000000" fill-opacity="0.302"><g transform="translate(27.195974, 35.590893)"><g><path d="M -1.550781 51.128906 L 54.332031 51.128906 L 54.332031 50.160156 L 21.539062 50.160156 L 54.332031 20.375 L 54.332031 4.851562 L 0 4.851562 L 0 5.820312 L 46.570312 5.820312 Z M -1.550781 51.128906 "/></g></g></g><g fill="#000000" fill-opacity="0.502"><g transform="translate(31.484355, 31.302518)"><g><path d="M -1.550781 51.128906 L 54.332031 51.128906 L 54.332031 50.160156 L 21.539062 50.160156 L 54.332031 20.375 L 54.332031 4.851562 L 0 4.851562 L 0 5.820312 L 46.570312 5.820312 Z M -1.550781 51.128906 "/></g></g></g><g fill="#000000" fill-opacity="1"><g transform="translate(35.772727, 27.014142)"><g><path d="M -1.550781 51.128906 L 54.332031 51.128906 L 54.332031 50.160156 L 21.539062 50.160156 L 54.332031 20.375 L 54.332031 4.851562 L 0 4.851562 L 0 5.820312 L 46.570312 5.820312 Z M -1.550781 51.128906 "/></g></g></g></svg>