<svg xmlns="http://www.w3.org/2000/svg" xmlns:xlink="http://www.w3.org/1999/xlink" width="500" zoomAndPan="magnify" viewBox="0 0 375 112.499997" height="150" preserveAspectRatio="xMidYMid meet" version="1.0"><defs><g/></defs><g fill="#000000" fill-opacity="1"><g transform="translate(102.238796, 60.579083)"><g><path d="M 9.050781 -13.402344 C 5.484375 -15.523438 4.0625 -16.304688 4.0625 -17.523438 C 4.0625 -18.191406 4.554688 -18.65625 5.511719 -18.65625 C 8.414062 -18.65625 12.445312 -15.898438 15.726562 -11.488281 L 15.898438 -11.488281 L 15.898438 -19.902344 L 15.753906 -19.902344 L 13.898438 -18.742188 C 12.824219 -19.410156 11.199219 -19.960938 9.167969 -19.960938 C 5.136719 -19.960938 1.855469 -18.480469 1.796875 -14.363281 C 1.742188 -11.199219 3.800781 -9.71875 6.238281 -8.269531 L 9.601562 -6.207031 C 12.359375 -4.585938 14.738281 -3.480469 14.738281 -2.175781 C 14.738281 -1.625 14.363281 -1.042969 13.054688 -1.042969 C 10.851562 -1.042969 4.84375 -2.757812 1.335938 -9.71875 L 1.132812 -9.691406 L 1.625 -0.753906 C 4.234375 -0.378906 6.613281 0.582031 9.429688 0.582031 C 14.449219 0.582031 16.945312 -2.496094 16.945312 -5.597656 C 16.945312 -8.066406 15.347656 -9.632812 12.535156 -11.285156 Z M 9.050781 -13.402344 "/></g></g></g><g fill="#000000" fill-opacity="1"><g transform="translate(120.1395, 60.579083)"><g><path d="M 17.902344 -19.582031 L 10.675781 -19.582031 L 10.675781 -19.410156 L 12.242188 -17.902344 L 12.214844 -3.945312 C 11.632812 -3.277344 10.9375 -2.8125 9.980469 -2.8125 C 8.355469 -2.8125 7.777344 -4.265625 7.777344 -6.585938 L 7.777344 -19.582031 L 0.582031 -19.582031 L 0.582031 -19.410156 L 2.117188 -17.902344 L 2.089844 -5.570312 C 2.089844 -1.394531 4.179688 0.433594 7.425781 0.433594 C 8.210938 0.433594 9.429688 -0.582031 12.214844 -3.21875 L 12.214844 0 L 19.410156 0 L 19.410156 -0.175781 L 17.871094 -1.683594 Z M 17.902344 -19.582031 "/></g></g></g><g fill="#000000" fill-opacity="1"><g transform="translate(140.245149, 60.579083)"><g><path d="M 5.367188 -7.339844 C 5.367188 -16.160156 7.601562 -20.484375 8.9375 -21.789062 L 8.820312 -21.992188 C 6.644531 -20.6875 0.636719 -17.464844 0.636719 -7.339844 C 0.636719 2.785156 6.644531 6.003906 8.820312 7.3125 L 8.9375 7.109375 C 7.601562 5.800781 5.367188 1.449219 5.367188 -7.339844 Z M 5.367188 -7.339844 "/></g></g></g><g fill="#000000" fill-opacity="1"><g transform="translate(149.355071, 60.579083)"><g><path d="M 9.050781 -13.402344 C 5.484375 -15.523438 4.0625 -16.304688 4.0625 -17.523438 C 4.0625 -18.191406 4.554688 -18.65625 5.511719 -18.65625 C 8.414062 -18.65625 12.445312 -15.898438 15.726562 -11.488281 L 15.898438 -11.488281 L 15.898438 -19.902344 L 15.753906 -19.902344 L 13.898438 -18.742188 C 12.824219 -19.410156 11.199219 -19.960938 9.167969 -19.960938 C 5.136719 -19.960938 1.855469 -18.480469 1.796875 -14.363281 C 1.742188 -11.199219 3.800781 -9.71875 6.238281 -8.269531 L 9.601562 -6.207031 C 12.359375 -4.585938 14.738281 -3.480469 14.738281 -2.175781 C 14.738281 -1.625 14.363281 -1.042969 13.054688 -1.042969 C 10.851562 -1.042969 4.84375 -2.757812 1.335938 -9.71875 L 1.132812 -9.691406 L 1.625 -0.753906 C 4.234375 -0.378906 6.613281 0.582031 9.429688 0.582031 C 14.449219 0.582031 16.945312 -2.496094 16.945312 -5.597656 C 16.945312 -8.066406 15.347656 -9.632812 12.535156 -11.285156 Z M 9.050781 -13.402344 "/></g></g></g><g fill="#000000" fill-opacity="1"><g transform="translate(167.255775, 60.579083)"><g><path d="M 0.203125 -21.789062 C 1.507812 -20.484375 3.742188 -16.160156 3.742188 -7.339844 C 3.742188 1.449219 1.507812 5.800781 0.203125 7.109375 L 0.320312 7.3125 C 2.464844 6.003906 8.472656 2.785156 8.472656 -7.339844 C 8.472656 -17.464844 2.464844 -20.6875 0.320312 -21.992188 Z M 0.203125 -21.789062 "/></g></g></g><g fill="#000000" fill-opacity="1"><g transform="translate(176.365697, 60.579083)"><g><path d="M 10.617188 0.320312 C 11.316406 0.320312 15.464844 -2.757812 17.292969 -4.292969 L 17.175781 -4.46875 C 16.277344 -4.148438 15.40625 -3.945312 14.476562 -3.945312 C 7.515625 -3.945312 4.875 -10.996094 4.875 -15.171875 C 4.902344 -17.609375 6.003906 -18.566406 7.109375 -18.566406 C 8.355469 -18.566406 10.878906 -17.582031 12.503906 -11.835938 L 12.679688 -11.777344 L 17.4375 -16.449219 C 16.449219 -18.277344 13.722656 -19.988281 10.15625 -19.988281 C 8.125 -19.988281 0.753906 -18.132812 0.726562 -9.980469 C 0.695312 -3.683594 5.078125 0.117188 10.617188 0.320312 Z M 10.617188 0.320312 "/></g></g></g><g fill="#000000" fill-opacity="1"><g transform="translate(194.092328, 60.579083)"><g><path d="M 16.914062 -8.238281 C 16.277344 -7.28125 15.753906 -6.441406 15.289062 -5.714844 C 12.679688 -1.507812 12.011719 -0.523438 8.617188 -0.523438 L 8.152344 -0.523438 L 8.152344 -9.632812 L 8.441406 -9.632812 C 10.007812 -9.632812 11.171875 -8.9375 12.996094 -5.628906 L 13.171875 -5.628906 L 13.171875 -14.128906 L 12.996094 -14.128906 C 11.140625 -10.589844 10.007812 -10.125 8.441406 -10.125 L 8.152344 -10.125 L 8.152344 -19.0625 L 8.441406 -19.0625 C 11.835938 -19.0625 12.503906 -18.074219 15.117188 -13.867188 L 16.742188 -11.34375 L 16.914062 -11.34375 L 16.914062 -19.582031 L 0.929688 -19.582031 L 0.929688 -19.410156 L 2.496094 -17.902344 L 2.496094 -1.683594 L 0.929688 -0.175781 L 0.929688 0 L 17.089844 0 L 17.089844 -8.238281 Z M 16.914062 -8.238281 "/></g></g></g><g fill="#000000" fill-opacity="1"><g transform="translate(212.892419, 60.579083)"><g><path d="M 9.050781 -13.402344 C 5.484375 -15.523438 4.0625 -16.304688 4.0625 -17.523438 C 4.0625 -18.191406 4.554688 -18.65625 5.511719 -18.65625 C 8.414062 -18.65625 12.445312 -15.898438 15.726562 -11.488281 L 15.898438 -11.488281 L 15.898438 -19.902344 L 15.753906 -19.902344 L 13.898438 -18.742188 C 12.824219 -19.410156 11.199219 -19.960938 9.167969 -19.960938 C 5.136719 -19.960938 1.855469 -18.480469 1.796875 -14.363281 C 1.742188 -11.199219 3.800781 -9.71875 6.238281 -8.269531 L 9.601562 -6.207031 C 12.359375 -4.585938 14.738281 -3.480469 14.738281 -2.175781 C 14.738281 -1.625 14.363281 -1.042969 13.054688 -1.042969 C 10.851562 -1.042969 4.84375 -2.757812 1.335938 -9.71875 L 1.132812 -9.691406 L 1.625 -0.753906 C 4.234375 -0.378906 6.613281 0.582031 9.429688 0.582031 C 14.449219 0.582031 16.945312 -2.496094 16.945312 -5.597656 C 16.945312 -8.066406 15.347656 -9.632812 12.535156 -11.285156 Z M 9.050781 -13.402344 "/></g></g></g><g fill="#000000" fill-opacity="1"><g transform="translate(230.793122, 60.579083)"><g><path d="M 9.050781 -13.402344 C 5.484375 -15.523438 4.0625 -16.304688 4.0625 -17.523438 C 4.0625 -18.191406 4.554688 -18.65625 5.511719 -18.65625 C 8.414062 -18.65625 12.445312 -15.898438 15.726562 -11.488281 L 15.898438 -11.488281 L 15.898438 -19.902344 L 15.753906 -19.902344 L 13.898438 -18.742188 C 12.824219 -19.410156 11.199219 -19.960938 9.167969 -19.960938 C 5.136719 -19.960938 1.855469 -18.480469 1.796875 -14.363281 C 1.742188 -11.199219 3.800781 -9.71875 6.238281 -8.269531 L 9.601562 -6.207031 C 12.359375 -4.585938 14.738281 -3.480469 14.738281 -2.175781 C 14.738281 -1.625 14.363281 -1.042969 13.054688 -1.042969 C 10.851562 -1.042969 4.84375 -2.757812 1.335938 -9.71875 L 1.132812 -9.691406 L 1.625 -0.753906 C 4.234375 -0.378906 6.613281 0.582031 9.429688 0.582031 C 14.449219 0.582031 16.945312 -2.496094 16.945312 -5.597656 C 16.945312 -8.066406 15.347656 -9.632812 12.535156 -11.285156 Z M 9.050781 -13.402344 "/></g></g></g><g fill="#000000" fill-opacity="1"><g transform="translate(248.693826, 60.579083)"><g><path d="M 9.835938 0.433594 C 11.082031 0.433594 18.828125 -1.304688 18.828125 -9.804688 C 18.828125 -15.464844 14.941406 -19.988281 9.777344 -19.988281 C 8.5 -19.988281 0.753906 -18.25 0.753906 -9.75 C 0.753906 -4.089844 4.585938 0.433594 9.835938 0.433594 Z M 13.230469 -1.277344 C 11.316406 -0.695312 8.644531 -3.828125 6.585938 -9.253906 C 4.527344 -14.679688 4.816406 -17.785156 6.324219 -18.277344 C 8.125 -18.800781 10.53125 -16.21875 12.5625 -11.140625 C 14.824219 -5.511719 14.796875 -1.796875 13.230469 -1.277344 Z M 13.230469 -1.277344 "/></g></g></g><g fill="#000000" fill-opacity="1"><g transform="translate(268.248243, 60.579083)"><g/></g></g><g fill="#000000" fill-opacity="1"><g transform="translate(273.81864, 60.579083)"><g><path d="M 10.996094 -19.410156 C 14.332031 -15.957031 16.972656 -10.792969 16.972656 -5.832031 L 16.972656 -4.121094 L 16.796875 -4.121094 L 7.339844 -19.582031 L 0.433594 -19.582031 L 0.433594 -19.4375 L 2.40625 -16.363281 L 2.40625 0 L 9.140625 0 L 9.140625 -0.175781 C 5.570312 -3.683594 3.074219 -7.949219 3.074219 -13.492188 L 3.074219 -15.40625 L 3.21875 -15.40625 L 12.707031 0.0585938 L 17.609375 0.0585938 L 17.609375 -19.582031 L 10.996094 -19.582031 Z M 10.996094 -19.410156 "/></g></g></g><g fill="#000000" fill-opacity="1"><g transform="translate(293.373056, 60.579083)"><g><path d="M 16.914062 -8.238281 C 16.277344 -7.28125 15.753906 -6.441406 15.289062 -5.714844 C 12.679688 -1.507812 12.011719 -0.523438 8.617188 -0.523438 L 8.152344 -0.523438 L 8.152344 -9.632812 L 8.441406 -9.632812 C 10.007812 -9.632812 11.171875 -8.9375 12.996094 -5.628906 L 13.171875 -5.628906 L 13.171875 -14.128906 L 12.996094 -14.128906 C 11.140625 -10.589844 10.007812 -10.125 8.441406 -10.125 L 8.152344 -10.125 L 8.152344 -19.0625 L 8.441406 -19.0625 C 11.835938 -19.0625 12.503906 -18.074219 15.117188 -13.867188 L 16.742188 -11.34375 L 16.914062 -11.34375 L 16.914062 -19.582031 L 0.929688 -19.582031 L 0.929688 -19.410156 L 2.496094 -17.902344 L 2.496094 -1.683594 L 0.929688 -0.175781 L 0.929688 0 L 17.089844 0 L 17.089844 -8.238281 Z M 16.914062 -8.238281 "/></g></g></g><g fill="#000000" fill-opacity="1"><g transform="translate(312.173138, 60.579083)"><g><path d="M 15.695312 -19.410156 C 18.421875 -17.640625 19.960938 -12.679688 19.03125 -8.992188 L 18.480469 -7.050781 L 18.335938 -7.050781 L 15.839844 -13.753906 L 17.058594 -15.261719 L 17.058594 -15.433594 L 9.691406 -15.433594 L 9.691406 -15.261719 C 10.765625 -13.839844 11.632812 -11.429688 10.648438 -8.355469 L 10.269531 -7.019531 L 10.125 -7.019531 L 6.613281 -17.902344 L 8.09375 -19.410156 L 8.09375 -19.582031 L 0.203125 -19.582031 L 0.203125 -19.410156 L 7.136719 0.464844 L 7.425781 0.464844 L 12.011719 -9.660156 L 12.15625 -9.660156 L 16.21875 0.464844 L 16.507812 0.464844 L 23.355469 -19.410156 L 23.355469 -19.582031 L 15.695312 -19.582031 Z M 15.695312 -19.410156 "/></g></g></g><g fill="#000000" fill-opacity="1"><g transform="translate(335.81832, 60.579083)"><g><path d="M 9.050781 -13.402344 C 5.484375 -15.523438 4.0625 -16.304688 4.0625 -17.523438 C 4.0625 -18.191406 4.554688 -18.65625 5.511719 -18.65625 C 8.414062 -18.65625 12.445312 -15.898438 15.726562 -11.488281 L 15.898438 -11.488281 L 15.898438 -19.902344 L 15.753906 -19.902344 L 13.898438 -18.742188 C 12.824219 -19.410156 11.199219 -19.960938 9.167969 -19.960938 C 5.136719 -19.960938 1.855469 -18.480469 1.796875 -14.363281 C 1.742188 -11.199219 3.800781 -9.71875 6.238281 -8.269531 L 9.601562 -6.207031 C 12.359375 -4.585938 14.738281 -3.480469 14.738281 -2.175781 C 14.738281 -1.625 14.363281 -1.042969 13.054688 -1.042969 C 10.851562 -1.042969 4.84375 -2.757812 1.335938 -9.71875 L 1.132812 -9.691406 L 1.625 -0.753906 C 4.234375 -0.378906 6.613281 0.582031 9.429688 0.582031 C 14.449219 0.582031 16.945312 -2.496094 16.945312 -5.597656 C 16.945312 -8.066406 15.347656 -9.632812 12.535156 -11.285156 Z M 9.050781 -13.402344 "/></g></g></g><g fill="#000000" fill-opacity="0.302"><g transform="translate(27.5018, 38.113478)"><g><path d="M 11.835938 -13.617188 C 9.257812 -14.351562 7.414062 -15.273438 7.414062 -17.660156 C 7.414062 -19.410156 8.367188 -22.210938 10.5625 -22.210938 L 11.835938 -22.210938 L 17.945312 -15.175781 C 18.265625 -14.765625 18.742188 -14.351562 18.964844 -14.351562 L 19.1875 -14.351562 C 19.535156 -14.351562 19.632812 -14.574219 19.632812 -14.921875 L 19.632812 -21.542969 C 19.632812 -22.050781 19.441406 -22.335938 18.933594 -22.367188 L 11.835938 -22.65625 L 10.40625 -22.65625 C 4.199219 -22.65625 2.066406 -19.3125 2.066406 -16.515625 C 2.066406 -12.949219 4.039062 -10.40625 9.832031 -8.65625 C 12.664062 -7.796875 14.699219 -7.222656 14.699219 -4.421875 C 14.699219 -2.671875 13.648438 -0.128906 11.550781 -0.128906 L 9.992188 -0.128906 L 3.882812 -7.160156 C 3.5625 -7.574219 3.085938 -7.988281 2.863281 -7.988281 L 2.640625 -7.988281 C 2.289062 -7.988281 2.195312 -7.765625 2.195312 -7.414062 L 2.195312 -0.796875 C 2.195312 -0.285156 2.386719 0 2.894531 0.03125 L 9.992188 0.316406 L 11.710938 0.316406 C 17.914062 0.316406 20.492188 -2.800781 20.492188 -6.617188 C 20.492188 -10.691406 16.226562 -12.378906 11.835938 -13.617188 Z M 11.835938 -13.617188 "/></g></g></g><g fill="#000000" fill-opacity="0.302"><g transform="translate(50.05668, 38.113478)"><g><path d="M 11.453125 0.316406 C 16.640625 0.316406 18.964844 -2.132812 18.964844 -7.414062 L 18.964844 -21.445312 C 18.964844 -21.953125 18.773438 -22.273438 18.265625 -22.273438 L 14.699219 -22.273438 C 14.542969 -22.273438 14.476562 -22.175781 14.476562 -22.050781 L 14.476562 -13.777344 C 14.476562 -13.554688 14.476562 -13.394531 14.699219 -13.140625 L 18.582031 -8.050781 L 18.582031 -7.414062 C 18.582031 -2.003906 15.558594 -0.128906 11.996094 -0.128906 L 11.453125 -0.128906 C 9.003906 -0.128906 7.890625 -1.75 7.890625 -7.414062 L 7.890625 -21.445312 C 7.890625 -21.953125 7.699219 -22.273438 7.191406 -22.273438 L 2.609375 -22.273438 C 2.101562 -22.273438 1.910156 -21.953125 1.910156 -21.445312 L 1.910156 -7.414062 C 1.910156 -2.132812 4.710938 0.316406 11.453125 0.316406 Z M 11.453125 0.316406 "/></g></g></g><g fill="#000000" fill-opacity="0.302"><g transform="translate(70.925514, 38.113478)"><g><path d="M 11.835938 -13.617188 C 9.257812 -14.351562 7.414062 -15.273438 7.414062 -17.660156 C 7.414062 -19.410156 8.367188 -22.210938 10.5625 -22.210938 L 11.835938 -22.210938 L 17.945312 -15.175781 C 18.265625 -14.765625 18.742188 -14.351562 18.964844 -14.351562 L 19.1875 -14.351562 C 19.535156 -14.351562 19.632812 -14.574219 19.632812 -14.921875 L 19.632812 -21.542969 C 19.632812 -22.050781 19.441406 -22.335938 18.933594 -22.367188 L 11.835938 -22.65625 L 10.40625 -22.65625 C 4.199219 -22.65625 2.066406 -19.3125 2.066406 -16.515625 C 2.066406 -12.949219 4.039062 -10.40625 9.832031 -8.65625 C 12.664062 -7.796875 14.699219 -7.222656 14.699219 -4.421875 C 14.699219 -2.671875 13.648438 -0.128906 11.550781 -0.128906 L 9.992188 -0.128906 L 3.882812 -7.160156 C 3.5625 -7.574219 3.085938 -7.988281 2.863281 -7.988281 L 2.640625 -7.988281 C 2.289062 -7.988281 2.195312 -7.765625 2.195312 -7.414062 L 2.195312 -0.796875 C 2.195312 -0.285156 2.386719 0 2.894531 0.03125 L 9.992188 0.316406 L 11.710938 0.316406 C 17.914062 0.316406 20.492188 -2.800781 20.492188 -6.617188 C 20.492188 -10.691406 16.226562 -12.378906 11.835938 -13.617188 Z M 11.835938 -13.617188 "/></g></g></g><g fill="#000000" fill-opacity="0.502"><g transform="translate(26.09511, 36.706787)"><g><path d="M 11.835938 -13.617188 C 9.257812 -14.351562 7.414062 -15.273438 7.414062 -17.660156 C 7.414062 -19.410156 8.367188 -22.210938 10.5625 -22.210938 L 11.835938 -22.210938 L 17.945312 -15.175781 C 18.265625 -14.765625 18.742188 -14.351562 18.964844 -14.351562 L 19.1875 -14.351562 C 19.535156 -14.351562 19.632812 -14.574219 19.632812 -14.921875 L 19.632812 -21.542969 C 19.632812 -22.050781 19.441406 -22.335938 18.933594 -22.367188 L 11.835938 -22.65625 L 10.40625 -22.65625 C 4.199219 -22.65625 2.066406 -19.3125 2.066406 -16.515625 C 2.066406 -12.949219 4.039062 -10.40625 9.832031 -8.65625 C 12.664062 -7.796875 14.699219 -7.222656 14.699219 -4.421875 C 14.699219 -2.671875 13.648438 -0.128906 11.550781 -0.128906 L 9.992188 -0.128906 L 3.882812 -7.160156 C 3.5625 -7.574219 3.085938 -7.988281 2.863281 -7.988281 L 2.640625 -7.988281 C 2.289062 -7.988281 2.195312 -7.765625 2.195312 -7.414062 L 2.195312 -0.796875 C 2.195312 -0.285156 2.386719 0 2.894531 0.03125 L 9.992188 0.316406 L 11.710938 0.316406 C 17.914062 0.316406 20.492188 -2.800781 20.492188 -6.617188 C 20.492188 -10.691406 16.226562 -12.378906 11.835938 -13.617188 Z M 11.835938 -13.617188 "/></g></g></g><g fill="#000000" fill-opacity="0.502"><g transform="translate(48.649989, 36.706787)"><g><path d="M 11.453125 0.316406 C 16.640625 0.316406 18.964844 -2.132812 18.964844 -7.414062 L 18.964844 -21.445312 C 18.964844 -21.953125 18.773438 -22.273438 18.265625 -22.273438 L 14.699219 -22.273438 C 14.542969 -22.273438 14.476562 -22.175781 14.476562 -22.050781 L 14.476562 -13.777344 C 14.476562 -13.554688 14.476562 -13.394531 14.699219 -13.140625 L 18.582031 -8.050781 L 18.582031 -7.414062 C 18.582031 -2.003906 15.558594 -0.128906 11.996094 -0.128906 L 11.453125 -0.128906 C 9.003906 -0.128906 7.890625 -1.75 7.890625 -7.414062 L 7.890625 -21.445312 C 7.890625 -21.953125 7.699219 -22.273438 7.191406 -22.273438 L 2.609375 -22.273438 C 2.101562 -22.273438 1.910156 -21.953125 1.910156 -21.445312 L 1.910156 -7.414062 C 1.910156 -2.132812 4.710938 0.316406 11.453125 0.316406 Z M 11.453125 0.316406 "/></g></g></g><g fill="#000000" fill-opacity="0.502"><g transform="translate(69.518824, 36.706787)"><g><path d="M 11.835938 -13.617188 C 9.257812 -14.351562 7.414062 -15.273438 7.414062 -17.660156 C 7.414062 -19.410156 8.367188 -22.210938 10.5625 -22.210938 L 11.835938 -22.210938 L 17.945312 -15.175781 C 18.265625 -14.765625 18.742188 -14.351562 18.964844 -14.351562 L 19.1875 -14.351562 C 19.535156 -14.351562 19.632812 -14.574219 19.632812 -14.921875 L 19.632812 -21.542969 C 19.632812 -22.050781 19.441406 -22.335938 18.933594 -22.367188 L 11.835938 -22.65625 L 10.40625 -22.65625 C 4.199219 -22.65625 2.066406 -19.3125 2.066406 -16.515625 C 2.066406 -12.949219 4.039062 -10.40625 9.832031 -8.65625 C 12.664062 -7.796875 14.699219 -7.222656 14.699219 -4.421875 C 14.699219 -2.671875 13.648438 -0.128906 11.550781 -0.128906 L 9.992188 -0.128906 L 3.882812 -7.160156 C 3.5625 -7.574219 3.085938 -7.988281 2.863281 -7.988281 L 2.640625 -7.988281 C 2.289062 -7.988281 2.195312 -7.765625 2.195312 -7.414062 L 2.195312 -0.796875 C 2.195312 -0.285156 2.386719 0 2.894531 0.03125 L 9.992188 0.316406 L 11.710938 0.316406 C 17.914062 0.316406 20.492188 -2.800781 20.492188 -6.617188 C 20.492188 -10.691406 16.226562 -12.378906 11.835938 -13.617188 Z M 11.835938 -13.617188 "/></g></g></g><g fill="#000000" fill-opacity="1"><g transform="translate(24.688419, 35.300097)"><g><path d="M 11.835938 -13.617188 C 9.257812 -14.351562 7.414062 -15.273438 7.414062 -17.660156 C 7.414062 -19.410156 8.367188 -22.210938 10.5625 -22.210938 L 11.835938 -22.210938 L 17.945312 -15.175781 C 18.265625 -14.765625 18.742188 -14.351562 18.964844 -14.351562 L 19.1875 -14.351562 C 19.535156 -14.351562 19.632812 -14.574219 19.632812 -14.921875 L 19.632812 -21.542969 C 19.632812 -22.050781 19.441406 -22.335938 18.933594 -22.367188 L 11.835938 -22.65625 L 10.40625 -22.65625 C 4.199219 -22.65625 2.066406 -19.3125 2.066406 -16.515625 C 2.066406 -12.949219 4.039062 -10.40625 9.832031 -8.65625 C 12.664062 -7.796875 14.699219 -7.222656 14.699219 -4.421875 C 14.699219 -2.671875 13.648438 -0.128906 11.550781 -0.128906 L 9.992188 -0.128906 L 3.882812 -7.160156 C 3.5625 -7.574219 3.085938 -7.988281 2.863281 -7.988281 L 2.640625 -7.988281 C 2.289062 -7.988281 2.195312 -7.765625 2.195312 -7.414062 L 2.195312 -0.796875 C 2.195312 -0.285156 2.386719 0 2.894531 0.03125 L 9.992188 0.316406 L 11.710938 0.316406 C 17.914062 0.316406 20.492188 -2.800781 20.492188 -6.617188 C 20.492188 -10.691406 16.226562 -12.378906 11.835938 -13.617188 Z M 11.835938 -13.617188 "/></g></g></g><g fill="#000000" fill-opacity="1"><g transform="translate(47.243299, 35.300097)"><g><path d="M 11.453125 0.316406 C 16.640625 0.316406 18.964844 -2.132812 18.964844 -7.414062 L 18.964844 -21.445312 C 18.964844 -21.953125 18.773438 -22.273438 18.265625 -22.273438 L 14.699219 -22.273438 C 14.542969 -22.273438 14.476562 -22.175781 14.476562 -22.050781 L 14.476562 -13.777344 C 14.476562 -13.554688 14.476562 -13.394531 14.699219 -13.140625 L 18.582031 -8.050781 L 18.582031 -7.414062 C 18.582031 -2.003906 15.558594 -0.128906 11.996094 -0.128906 L 11.453125 -0.128906 C 9.003906 -0.128906 7.890625 -1.75 7.890625 -7.414062 L 7.890625 -21.445312 C 7.890625 -21.953125 7.699219 -22.273438 7.191406 -22.273438 L 2.609375 -22.273438 C 2.101562 -22.273438 1.910156 -21.953125 1.910156 -21.445312 L 1.910156 -7.414062 C 1.910156 -2.132812 4.710938 0.316406 11.453125 0.316406 Z M 11.453125 0.316406 "/></g></g></g><g fill="#000000" fill-opacity="1"><g transform="translate(68.112133, 35.300097)"><g><path d="M 11.835938 -13.617188 C 9.257812 -14.351562 7.414062 -15.273438 7.414062 -17.660156 C 7.414062 -19.410156 8.367188 -22.210938 10.5625 -22.210938 L 11.835938 -22.210938 L 17.945312 -15.175781 C 18.265625 -14.765625 18.742188 -14.351562 18.964844 -14.351562 L 19.1875 -14.351562 C 19.535156 -14.351562 19.632812 -14.574219 19.632812 -14.921875 L 19.632812 -21.542969 C 19.632812 -22.050781 19.441406 -22.335938 18.933594 -22.367188 L 11.835938 -22.65625 L 10.40625 -22.65625 C 4.199219 -22.65625 2.066406 -19.3125 2.066406 -16.515625 C 2.066406 -12.949219 4.039062 -10.40625 9.832031 -8.65625 C 12.664062 -7.796875 14.699219 -7.222656 14.699219 -4.421875 C 14.699219 -2.671875 13.648438 -0.128906 11.550781 -0.128906 L 9.992188 -0.128906 L 3.882812 -7.160156 C 3.5625 -7.574219 3.085938 -7.988281 2.863281 -7.988281 L 2.640625 -7.988281 C 2.289062 -7.988281 2.195312 -7.765625 2.195312 -7.414062 L 2.195312 -0.796875 C 2.195312 -0.285156 2.386719 0 2.894531 0.03125 L 9.992188 0.316406 L 11.710938 0.316406 C 17.914062 0.316406 20.492188 -2.800781 20.492188 -6.617188 C 20.492188 -10.691406 16.226562 -12.378906 11.835938 -13.617188 Z M 11.835938 -13.617188 "/></g></g></g><g fill="#000000" fill-opacity="0.302"><g transform="translate(21.660486, 40.284549)"><g><path d="M -1.828125 60.21875 L 63.992188 60.21875 L 63.992188 59.078125 L 25.367188 59.078125 L 63.992188 23.996094 L 63.992188 5.714844 L 0 5.714844 L 0 6.855469 L 54.847656 6.855469 Z M -1.828125 60.21875 "/></g></g></g><g fill="#000000" fill-opacity="0.502"><g transform="translate(26.711275, 35.233761)"><g><path d="M -1.828125 60.21875 L 63.992188 60.21875 L 63.992188 59.078125 L 25.367188 59.078125 L 63.992188 23.996094 L 63.992188 5.714844 L 0 5.714844 L 0 6.855469 L 54.847656 6.855469 Z M -1.828125 60.21875 "/></g></g></g><g fill="#000000" fill-opacity="1"><g transform="translate(31.762065, 30.182973)"><g><path d="M -1.828125 60.21875 L 63.992188 60.21875 L 63.992188 59.078125 L 25.367188 59.078125 L 63.992188 23.996094 L 63.992188 5.714844 L 0 5.714844 L 0 6.855469 L 54.847656 6.855469 Z M -1.828125 60.21875 "/></g></g></g></svg>