<svg xmlns="http://www.w3.org/2000/svg" xmlns:xlink="http://www.w3.org/1999/xlink" width="500" zoomAndPan="magnify" viewBox="0 0 375 112.499997" height="150" preserveAspectRatio="xMidYMid meet" version="1.0"><defs><g/></defs><g fill="#000000" fill-opacity="1"><g transform="translate(104.227051, 66.177165)"><g><path d="M 6.609375 -22.3125 C 6.609375 -21.113281 7.078125 -20.003906 8.015625 -18.984375 C 8.953125 -17.960938 10.09375 -17.0625 11.4375 -16.28125 C 12.78125 -15.507812 14.117188 -14.722656 15.453125 -13.921875 C 16.785156 -13.117188 17.921875 -12.132812 18.859375 -10.96875 C 19.796875 -9.800781 20.265625 -8.507812 20.265625 -7.09375 C 20.265625 -4.863281 19.441406 -3.039062 17.796875 -1.625 C 16.148438 -0.21875 13.925781 0.484375 11.125 0.484375 C 8.332031 0.484375 5.5625 -0.0390625 2.8125 -1.09375 L 2.8125 -3.015625 C 5.582031 -1.628906 7.941406 -0.9375 9.890625 -0.9375 C 11.835938 -0.9375 13.351562 -1.410156 14.4375 -2.359375 C 15.519531 -3.316406 16.0625 -4.640625 16.0625 -6.328125 C 16.0625 -7.460938 15.613281 -8.5 14.71875 -9.4375 C 13.820312 -10.375 12.734375 -11.1875 11.453125 -11.875 C 10.179688 -12.570312 8.90625 -13.285156 7.625 -14.015625 C 6.34375 -14.753906 5.253906 -15.6875 4.359375 -16.8125 C 3.460938 -17.945312 3.015625 -19.316406 3.015625 -20.921875 C 3.015625 -22.523438 3.726562 -24.019531 5.15625 -25.40625 C 6.582031 -26.789062 8.710938 -27.484375 11.546875 -27.484375 C 13.390625 -27.484375 15.726562 -27.0625 18.5625 -26.21875 L 18.140625 -23.453125 C 14.472656 -25.023438 11.335938 -25.8125 8.734375 -25.8125 C 7.316406 -25.132812 6.609375 -23.96875 6.609375 -22.3125 Z M 6.609375 -22.3125 "/></g></g></g><g fill="#000000" fill-opacity="1"><g transform="translate(126.892043, 66.177165)"><g><path d="M 23.734375 -27 L 23.734375 -10.4375 C 23.734375 -7.90625 23.460938 -6.003906 22.921875 -4.734375 C 22.671875 -4.160156 22.28125 -3.515625 21.75 -2.796875 C 21.226562 -2.078125 20.613281 -1.5 19.90625 -1.0625 C 18.101562 -0.03125 15.859375 0.484375 13.171875 0.484375 C 6.429688 0.484375 3.0625 -2.976562 3.0625 -9.90625 L 3.0625 -27 L 7.21875 -27 L 7.21875 -9.578125 C 7.21875 -8.796875 7.226562 -8.160156 7.25 -7.671875 C 7.28125 -7.179688 7.425781 -6.484375 7.6875 -5.578125 C 7.945312 -4.679688 8.300781 -3.960938 8.75 -3.421875 C 9.195312 -2.878906 9.898438 -2.390625 10.859375 -1.953125 C 11.828125 -1.523438 12.976562 -1.3125 14.3125 -1.3125 C 19.394531 -1.3125 21.9375 -4.03125 21.9375 -9.46875 L 21.9375 -27 Z M 23.734375 -27 "/></g></g></g><g fill="#000000" fill-opacity="1"><g transform="translate(153.674241, 66.177165)"><g><path d="M 6.609375 -22.3125 C 6.609375 -21.113281 7.078125 -20.003906 8.015625 -18.984375 C 8.953125 -17.960938 10.09375 -17.0625 11.4375 -16.28125 C 12.78125 -15.507812 14.117188 -14.722656 15.453125 -13.921875 C 16.785156 -13.117188 17.921875 -12.132812 18.859375 -10.96875 C 19.796875 -9.800781 20.265625 -8.507812 20.265625 -7.09375 C 20.265625 -4.863281 19.441406 -3.039062 17.796875 -1.625 C 16.148438 -0.21875 13.925781 0.484375 11.125 0.484375 C 8.332031 0.484375 5.5625 -0.0390625 2.8125 -1.09375 L 2.8125 -3.015625 C 5.582031 -1.628906 7.941406 -0.9375 9.890625 -0.9375 C 11.835938 -0.9375 13.351562 -1.410156 14.4375 -2.359375 C 15.519531 -3.316406 16.0625 -4.640625 16.0625 -6.328125 C 16.0625 -7.460938 15.613281 -8.5 14.71875 -9.4375 C 13.820312 -10.375 12.734375 -11.1875 11.453125 -11.875 C 10.179688 -12.570312 8.90625 -13.285156 7.625 -14.015625 C 6.34375 -14.753906 5.253906 -15.6875 4.359375 -16.8125 C 3.460938 -17.945312 3.015625 -19.316406 3.015625 -20.921875 C 3.015625 -22.523438 3.726562 -24.019531 5.15625 -25.40625 C 6.582031 -26.789062 8.710938 -27.484375 11.546875 -27.484375 C 13.390625 -27.484375 15.726562 -27.0625 18.5625 -26.21875 L 18.140625 -23.453125 C 14.472656 -25.023438 11.335938 -25.8125 8.734375 -25.8125 C 7.316406 -25.132812 6.609375 -23.96875 6.609375 -22.3125 Z M 6.609375 -22.3125 "/></g></g></g><g fill="#000000" fill-opacity="1"><g transform="translate(176.339233, 66.177165)"><g><path d="M 9.296875 0.484375 C 6.929688 0.484375 4.96875 -0.320312 3.40625 -1.9375 C 1.84375 -3.550781 1.0625 -5.835938 1.0625 -8.796875 C 1.0625 -11.765625 1.894531 -14.191406 3.5625 -16.078125 C 5.238281 -17.972656 7.367188 -18.921875 9.953125 -18.921875 C 11.390625 -18.921875 13.003906 -18.566406 14.796875 -17.859375 L 14.390625 -15.171875 C 12.003906 -16.421875 9.953125 -17.046875 8.234375 -17.046875 C 6.828125 -16.335938 5.804688 -15.191406 5.171875 -13.609375 C 4.546875 -12.035156 4.234375 -10.488281 4.234375 -8.96875 C 4.234375 -6.90625 4.835938 -5.1875 6.046875 -3.8125 C 7.265625 -2.4375 8.710938 -1.75 10.390625 -1.75 C 12.078125 -1.75 13.628906 -2.117188 15.046875 -2.859375 L 15.046875 -1.421875 C 13.085938 -0.148438 11.171875 0.484375 9.296875 0.484375 Z M 9.296875 0.484375 "/></g></g></g><g fill="#000000" fill-opacity="1"><g transform="translate(192.88958, 66.177165)"><g><path d="M 4.28125 -10.03125 C 4.28125 -7.09375 4.9375 -4.976562 6.25 -3.6875 C 7.570312 -2.394531 9.175781 -1.75 11.0625 -1.75 C 12.957031 -1.75 14.707031 -2.117188 16.3125 -2.859375 L 16.3125 -1.421875 C 14.082031 -0.148438 11.945312 0.484375 9.90625 0.484375 C 7.269531 0.484375 5.132812 -0.316406 3.5 -1.921875 C 1.875 -3.523438 1.0625 -5.847656 1.0625 -8.890625 C 1.0625 -11.929688 1.960938 -14.363281 3.765625 -16.1875 C 5.578125 -18.007812 7.757812 -18.921875 10.3125 -18.921875 C 12.300781 -18.921875 13.960938 -18.140625 15.296875 -16.578125 C 16.628906 -15.015625 17.296875 -12.832031 17.296875 -10.03125 Z M 8.234375 -17 C 7.285156 -16.539062 6.46875 -15.800781 5.78125 -14.78125 C 5.101562 -13.757812 4.65625 -12.582031 4.4375 -11.25 L 13.984375 -11.25 C 13.898438 -12.394531 13.632812 -13.375 13.1875 -14.1875 C 12.738281 -15.007812 12.203125 -15.609375 11.578125 -15.984375 C 10.460938 -16.660156 9.347656 -17 8.234375 -17 Z M 8.234375 -17 "/></g></g></g><g fill="#000000" fill-opacity="1"><g transform="translate(212.008084, 66.177165)"><g><path d="M 6.890625 -17.203125 C 6.179688 -17.203125 5.601562 -16.9375 5.15625 -16.40625 C 4.707031 -15.882812 4.484375 -15.289062 4.484375 -14.625 C 4.484375 -13.957031 4.800781 -13.316406 5.4375 -12.703125 C 6.082031 -12.085938 6.859375 -11.539062 7.765625 -11.0625 C 8.679688 -10.59375 9.585938 -10.097656 10.484375 -9.578125 C 11.378906 -9.066406 12.144531 -8.398438 12.78125 -7.578125 C 13.425781 -6.765625 13.75 -5.859375 13.75 -4.859375 C 13.75 -3.328125 13.132812 -2.050781 11.90625 -1.03125 C 10.6875 -0.0195312 9.019531 0.484375 6.90625 0.484375 C 4.800781 0.484375 2.878906 -0.00390625 1.140625 -0.984375 L 1.140625 -2.53125 C 2.992188 -1.601562 4.664062 -1.140625 6.15625 -1.140625 C 7.65625 -1.140625 8.742188 -1.4375 9.421875 -2.03125 C 10.097656 -2.632812 10.4375 -3.320312 10.4375 -4.09375 C 10.4375 -4.875 10.128906 -5.566406 9.515625 -6.171875 C 8.910156 -6.785156 8.164062 -7.320312 7.28125 -7.78125 C 6.394531 -8.25 5.515625 -8.738281 4.640625 -9.25 C 3.773438 -9.769531 3.035156 -10.4375 2.421875 -11.25 C 1.816406 -12.070312 1.515625 -13.0625 1.515625 -14.21875 C 1.515625 -15.375 1.984375 -16.445312 2.921875 -17.4375 C 3.859375 -18.425781 5.304688 -18.921875 7.265625 -18.921875 C 9.222656 -18.921875 11.097656 -18.566406 12.890625 -17.859375 L 12.484375 -15.171875 C 10.472656 -16.253906 8.609375 -16.929688 6.890625 -17.203125 Z M 6.890625 -17.203125 "/></g></g></g><g fill="#000000" fill-opacity="1"><g transform="translate(227.172435, 66.177165)"><g><path d="M 6.890625 -17.203125 C 6.179688 -17.203125 5.601562 -16.9375 5.15625 -16.40625 C 4.707031 -15.882812 4.484375 -15.289062 4.484375 -14.625 C 4.484375 -13.957031 4.800781 -13.316406 5.4375 -12.703125 C 6.082031 -12.085938 6.859375 -11.539062 7.765625 -11.0625 C 8.679688 -10.59375 9.585938 -10.097656 10.484375 -9.578125 C 11.378906 -9.066406 12.144531 -8.398438 12.78125 -7.578125 C 13.425781 -6.765625 13.75 -5.859375 13.75 -4.859375 C 13.75 -3.328125 13.132812 -2.050781 11.90625 -1.03125 C 10.6875 -0.0195312 9.019531 0.484375 6.90625 0.484375 C 4.800781 0.484375 2.878906 -0.00390625 1.140625 -0.984375 L 1.140625 -2.53125 C 2.992188 -1.601562 4.664062 -1.140625 6.15625 -1.140625 C 7.65625 -1.140625 8.742188 -1.4375 9.421875 -2.03125 C 10.097656 -2.632812 10.4375 -3.320312 10.4375 -4.09375 C 10.4375 -4.875 10.128906 -5.566406 9.515625 -6.171875 C 8.910156 -6.785156 8.164062 -7.320312 7.28125 -7.78125 C 6.394531 -8.25 5.515625 -8.738281 4.640625 -9.25 C 3.773438 -9.769531 3.035156 -10.4375 2.421875 -11.25 C 1.816406 -12.070312 1.515625 -13.0625 1.515625 -14.21875 C 1.515625 -15.375 1.984375 -16.445312 2.921875 -17.4375 C 3.859375 -18.425781 5.304688 -18.921875 7.265625 -18.921875 C 9.222656 -18.921875 11.097656 -18.566406 12.890625 -17.859375 L 12.484375 -15.171875 C 10.472656 -16.253906 8.609375 -16.929688 6.890625 -17.203125 Z M 6.890625 -17.203125 "/></g></g></g><g fill="#000000" fill-opacity="1"><g transform="translate(242.336786, 66.177165)"><g><path d="M 10.921875 -18.921875 C 13.316406 -18.921875 15.296875 -18.101562 16.859375 -16.46875 C 18.421875 -14.84375 19.203125 -12.601562 19.203125 -9.75 C 19.203125 -7.925781 18.890625 -6.320312 18.265625 -4.9375 C 17.640625 -3.550781 16.828125 -2.476562 15.828125 -1.71875 C 13.890625 -0.25 11.734375 0.484375 9.359375 0.484375 C 6.984375 0.484375 5.007812 -0.328125 3.4375 -1.953125 C 1.875 -3.585938 1.09375 -5.832031 1.09375 -8.6875 C 1.09375 -10.507812 1.398438 -12.113281 2.015625 -13.5 C 2.628906 -14.882812 3.4375 -15.957031 4.4375 -16.71875 C 6.375 -18.1875 8.535156 -18.921875 10.921875 -18.921875 Z M 10.109375 -0.890625 C 11.304688 -0.890625 12.328125 -1.351562 13.171875 -2.28125 C 14.691406 -3.914062 15.453125 -6.082031 15.453125 -8.78125 C 15.453125 -11.488281 14.988281 -13.597656 14.0625 -15.109375 C 13.144531 -16.617188 11.640625 -17.375 9.546875 -17.375 C 7.992188 -16.769531 6.816406 -15.710938 6.015625 -14.203125 C 5.210938 -12.703125 4.8125 -10.882812 4.8125 -8.75 C 4.8125 -6.613281 5.242188 -4.769531 6.109375 -3.21875 C 6.984375 -1.664062 8.316406 -0.890625 10.109375 -0.890625 Z M 10.109375 -0.890625 "/></g></g></g><g fill="#000000" fill-opacity="1"><g transform="translate(262.718979, 66.177165)"><g/></g></g><g fill="#000000" fill-opacity="1"><g transform="translate(272.910084, 66.177165)"><g><path d="M 24.1875 0.453125 L 23.484375 0.453125 L 5.625 -21.90625 L 5.46875 -21.90625 L 5.46875 0 L 3.671875 0 L 3.671875 -27 L 6.6875 -27 L 22.21875 -7.375 L 22.390625 -7.375 L 22.390625 -27 L 24.1875 -27 Z M 24.1875 0.453125 "/></g></g></g><g fill="#000000" fill-opacity="1"><g transform="translate(300.752154, 66.177165)"><g><path d="M 4.28125 -10.03125 C 4.28125 -7.09375 4.9375 -4.976562 6.25 -3.6875 C 7.570312 -2.394531 9.175781 -1.75 11.0625 -1.75 C 12.957031 -1.75 14.707031 -2.117188 16.3125 -2.859375 L 16.3125 -1.421875 C 14.082031 -0.148438 11.945312 0.484375 9.90625 0.484375 C 7.269531 0.484375 5.132812 -0.316406 3.5 -1.921875 C 1.875 -3.523438 1.0625 -5.847656 1.0625 -8.890625 C 1.0625 -11.929688 1.960938 -14.363281 3.765625 -16.1875 C 5.578125 -18.007812 7.757812 -18.921875 10.3125 -18.921875 C 12.300781 -18.921875 13.960938 -18.140625 15.296875 -16.578125 C 16.628906 -15.015625 17.296875 -12.832031 17.296875 -10.03125 Z M 8.234375 -17 C 7.285156 -16.539062 6.46875 -15.800781 5.78125 -14.78125 C 5.101562 -13.757812 4.65625 -12.582031 4.4375 -11.25 L 13.984375 -11.25 C 13.898438 -12.394531 13.632812 -13.375 13.1875 -14.1875 C 12.738281 -15.007812 12.203125 -15.609375 11.578125 -15.984375 C 10.460938 -16.660156 9.347656 -17 8.234375 -17 Z M 8.234375 -17 "/></g></g></g><g fill="#000000" fill-opacity="1"><g transform="translate(319.870659, 66.177165)"><g><path d="M 4.15625 -18.4375 L 9.578125 -4.03125 L 13.25 -14.0625 L 11.421875 -18.4375 L 15.171875 -18.4375 L 20.59375 -4.03125 L 25.890625 -18.4375 L 27.484375 -18.4375 L 20.03125 0.53125 L 19.375 0.53125 L 13.984375 -12.1875 L 8.96875 0.53125 L 8.359375 0.53125 L 0.40625 -18.4375 Z M 4.15625 -18.4375 "/></g></g></g><g fill="#000000" fill-opacity="1"><g transform="translate(347.753492, 66.177165)"><g><path d="M 6.890625 -17.203125 C 6.179688 -17.203125 5.601562 -16.9375 5.15625 -16.40625 C 4.707031 -15.882812 4.484375 -15.289062 4.484375 -14.625 C 4.484375 -13.957031 4.800781 -13.316406 5.4375 -12.703125 C 6.082031 -12.085938 6.859375 -11.539062 7.765625 -11.0625 C 8.679688 -10.59375 9.585938 -10.097656 10.484375 -9.578125 C 11.378906 -9.066406 12.144531 -8.398438 12.78125 -7.578125 C 13.425781 -6.765625 13.75 -5.859375 13.75 -4.859375 C 13.75 -3.328125 13.132812 -2.050781 11.90625 -1.03125 C 10.6875 -0.0195312 9.019531 0.484375 6.90625 0.484375 C 4.800781 0.484375 2.878906 -0.00390625 1.140625 -0.984375 L 1.140625 -2.53125 C 2.992188 -1.601562 4.664062 -1.140625 6.15625 -1.140625 C 7.65625 -1.140625 8.742188 -1.4375 9.421875 -2.03125 C 10.097656 -2.632812 10.4375 -3.320312 10.4375 -4.09375 C 10.4375 -4.875 10.128906 -5.566406 9.515625 -6.171875 C 8.910156 -6.785156 8.164062 -7.320312 7.28125 -7.78125 C 6.394531 -8.25 5.515625 -8.738281 4.640625 -9.25 C 3.773438 -9.769531 3.035156 -10.4375 2.421875 -11.25 C 1.816406 -12.070312 1.515625 -13.0625 1.515625 -14.21875 C 1.515625 -15.375 1.984375 -16.445312 2.921875 -17.4375 C 3.859375 -18.425781 5.304688 -18.921875 7.265625 -18.921875 C 9.222656 -18.921875 11.097656 -18.566406 12.890625 -17.859375 L 12.484375 -15.171875 C 10.472656 -16.253906 8.609375 -16.929688 6.890625 -17.203125 Z M 6.890625 -17.203125 "/></g></g></g><g fill="#000000" fill-opacity="0.302"><g transform="translate(27.5018, 38.113478)"><g><path d="M 11.835938 -13.617188 C 9.257812 -14.351562 7.414062 -15.273438 7.414062 -17.660156 C 7.414062 -19.410156 8.367188 -22.210938 10.5625 -22.210938 L 11.835938 -22.210938 L 17.945312 -15.175781 C 18.265625 -14.765625 18.742188 -14.351562 18.964844 -14.351562 L 19.1875 -14.351562 C 19.535156 -14.351562 19.632812 -14.574219 19.632812 -14.921875 L 19.632812 -21.542969 C 19.632812 -22.050781 19.441406 -22.335938 18.933594 -22.367188 L 11.835938 -22.65625 L 10.40625 -22.65625 C 4.199219 -22.65625 2.066406 -19.3125 2.066406 -16.515625 C 2.066406 -12.949219 4.039062 -10.40625 9.832031 -8.65625 C 12.664062 -7.796875 14.699219 -7.222656 14.699219 -4.421875 C 14.699219 -2.671875 13.648438 -0.128906 11.550781 -0.128906 L 9.992188 -0.128906 L 3.882812 -7.160156 C 3.5625 -7.574219 3.085938 -7.988281 2.863281 -7.988281 L 2.640625 -7.988281 C 2.289062 -7.988281 2.195312 -7.765625 2.195312 -7.414062 L 2.195312 -0.796875 C 2.195312 -0.285156 2.386719 0 2.894531 0.03125 L 9.992188 0.316406 L 11.710938 0.316406 C 17.914062 0.316406 20.492188 -2.800781 20.492188 -6.617188 C 20.492188 -10.691406 16.226562 -12.378906 11.835938 -13.617188 Z M 11.835938 -13.617188 "/></g></g></g><g fill="#000000" fill-opacity="0.302"><g transform="translate(50.05668, 38.113478)"><g><path d="M 11.453125 0.316406 C 16.640625 0.316406 18.964844 -2.132812 18.964844 -7.414062 L 18.964844 -21.445312 C 18.964844 -21.953125 18.773438 -22.273438 18.265625 -22.273438 L 14.699219 -22.273438 C 14.542969 -22.273438 14.476562 -22.175781 14.476562 -22.050781 L 14.476562 -13.777344 C 14.476562 -13.554688 14.476562 -13.394531 14.699219 -13.140625 L 18.582031 -8.050781 L 18.582031 -7.414062 C 18.582031 -2.003906 15.558594 -0.128906 11.996094 -0.128906 L 11.453125 -0.128906 C 9.003906 -0.128906 7.890625 -1.75 7.890625 -7.414062 L 7.890625 -21.445312 C 7.890625 -21.953125 7.699219 -22.273438 7.191406 -22.273438 L 2.609375 -22.273438 C 2.101562 -22.273438 1.910156 -21.953125 1.910156 -21.445312 L 1.910156 -7.414062 C 1.910156 -2.132812 4.710938 0.316406 11.453125 0.316406 Z M 11.453125 0.316406 "/></g></g></g><g fill="#000000" fill-opacity="0.302"><g transform="translate(70.925514, 38.113478)"><g><path d="M 11.835938 -13.617188 C 9.257812 -14.351562 7.414062 -15.273438 7.414062 -17.660156 C 7.414062 -19.410156 8.367188 -22.210938 10.5625 -22.210938 L 11.835938 -22.210938 L 17.945312 -15.175781 C 18.265625 -14.765625 18.742188 -14.351562 18.964844 -14.351562 L 19.1875 -14.351562 C 19.535156 -14.351562 19.632812 -14.574219 19.632812 -14.921875 L 19.632812 -21.542969 C 19.632812 -22.050781 19.441406 -22.335938 18.933594 -22.367188 L 11.835938 -22.65625 L 10.40625 -22.65625 C 4.199219 -22.65625 2.066406 -19.3125 2.066406 -16.515625 C 2.066406 -12.949219 4.039062 -10.40625 9.832031 -8.65625 C 12.664062 -7.796875 14.699219 -7.222656 14.699219 -4.421875 C 14.699219 -2.671875 13.648438 -0.128906 11.550781 -0.128906 L 9.992188 -0.128906 L 3.882812 -7.160156 C 3.5625 -7.574219 3.085938 -7.988281 2.863281 -7.988281 L 2.640625 -7.988281 C 2.289062 -7.988281 2.195312 -7.765625 2.195312 -7.414062 L 2.195312 -0.796875 C 2.195312 -0.285156 2.386719 0 2.894531 0.03125 L 9.992188 0.316406 L 11.710938 0.316406 C 17.914062 0.316406 20.492188 -2.800781 20.492188 -6.617188 C 20.492188 -10.691406 16.226562 -12.378906 11.835938 -13.617188 Z M 11.835938 -13.617188 "/></g></g></g><g fill="#000000" fill-opacity="0.502"><g transform="translate(26.09511, 36.706787)"><g><path d="M 11.835938 -13.617188 C 9.257812 -14.351562 7.414062 -15.273438 7.414062 -17.660156 C 7.414062 -19.410156 8.367188 -22.210938 10.5625 -22.210938 L 11.835938 -22.210938 L 17.945312 -15.175781 C 18.265625 -14.765625 18.742188 -14.351562 18.964844 -14.351562 L 19.1875 -14.351562 C 19.535156 -14.351562 19.632812 -14.574219 19.632812 -14.921875 L 19.632812 -21.542969 C 19.632812 -22.050781 19.441406 -22.335938 18.933594 -22.367188 L 11.835938 -22.65625 L 10.40625 -22.65625 C 4.199219 -22.65625 2.066406 -19.3125 2.066406 -16.515625 C 2.066406 -12.949219 4.039062 -10.40625 9.832031 -8.65625 C 12.664062 -7.796875 14.699219 -7.222656 14.699219 -4.421875 C 14.699219 -2.671875 13.648438 -0.128906 11.550781 -0.128906 L 9.992188 -0.128906 L 3.882812 -7.160156 C 3.5625 -7.574219 3.085938 -7.988281 2.863281 -7.988281 L 2.640625 -7.988281 C 2.289062 -7.988281 2.195312 -7.765625 2.195312 -7.414062 L 2.195312 -0.796875 C 2.195312 -0.285156 2.386719 0 2.894531 0.03125 L 9.992188 0.316406 L 11.710938 0.316406 C 17.914062 0.316406 20.492188 -2.800781 20.492188 -6.617188 C 20.492188 -10.691406 16.226562 -12.378906 11.835938 -13.617188 Z M 11.835938 -13.617188 "/></g></g></g><g fill="#000000" fill-opacity="0.502"><g transform="translate(48.649989, 36.706787)"><g><path d="M 11.453125 0.316406 C 16.640625 0.316406 18.964844 -2.132812 18.964844 -7.414062 L 18.964844 -21.445312 C 18.964844 -21.953125 18.773438 -22.273438 18.265625 -22.273438 L 14.699219 -22.273438 C 14.542969 -22.273438 14.476562 -22.175781 14.476562 -22.050781 L 14.476562 -13.777344 C 14.476562 -13.554688 14.476562 -13.394531 14.699219 -13.140625 L 18.582031 -8.050781 L 18.582031 -7.414062 C 18.582031 -2.003906 15.558594 -0.128906 11.996094 -0.128906 L 11.453125 -0.128906 C 9.003906 -0.128906 7.890625 -1.75 7.890625 -7.414062 L 7.890625 -21.445312 C 7.890625 -21.953125 7.699219 -22.273438 7.191406 -22.273438 L 2.609375 -22.273438 C 2.101562 -22.273438 1.910156 -21.953125 1.910156 -21.445312 L 1.910156 -7.414062 C 1.910156 -2.132812 4.710938 0.316406 11.453125 0.316406 Z M 11.453125 0.316406 "/></g></g></g><g fill="#000000" fill-opacity="0.502"><g transform="translate(69.518824, 36.706787)"><g><path d="M 11.835938 -13.617188 C 9.257812 -14.351562 7.414062 -15.273438 7.414062 -17.660156 C 7.414062 -19.410156 8.367188 -22.210938 10.5625 -22.210938 L 11.835938 -22.210938 L 17.945312 -15.175781 C 18.265625 -14.765625 18.742188 -14.351562 18.964844 -14.351562 L 19.1875 -14.351562 C 19.535156 -14.351562 19.632812 -14.574219 19.632812 -14.921875 L 19.632812 -21.542969 C 19.632812 -22.050781 19.441406 -22.335938 18.933594 -22.367188 L 11.835938 -22.65625 L 10.40625 -22.65625 C 4.199219 -22.65625 2.066406 -19.3125 2.066406 -16.515625 C 2.066406 -12.949219 4.039062 -10.40625 9.832031 -8.65625 C 12.664062 -7.796875 14.699219 -7.222656 14.699219 -4.421875 C 14.699219 -2.671875 13.648438 -0.128906 11.550781 -0.128906 L 9.992188 -0.128906 L 3.882812 -7.160156 C 3.5625 -7.574219 3.085938 -7.988281 2.863281 -7.988281 L 2.640625 -7.988281 C 2.289062 -7.988281 2.195312 -7.765625 2.195312 -7.414062 L 2.195312 -0.796875 C 2.195312 -0.285156 2.386719 0 2.894531 0.03125 L 9.992188 0.316406 L 11.710938 0.316406 C 17.914062 0.316406 20.492188 -2.800781 20.492188 -6.617188 C 20.492188 -10.691406 16.226562 -12.378906 11.835938 -13.617188 Z M 11.835938 -13.617188 "/></g></g></g><g fill="#000000" fill-opacity="1"><g transform="translate(24.688419, 35.300097)"><g><path d="M 11.835938 -13.617188 C 9.257812 -14.351562 7.414062 -15.273438 7.414062 -17.660156 C 7.414062 -19.410156 8.367188 -22.210938 10.5625 -22.210938 L 11.835938 -22.210938 L 17.945312 -15.175781 C 18.265625 -14.765625 18.742188 -14.351562 18.964844 -14.351562 L 19.1875 -14.351562 C 19.535156 -14.351562 19.632812 -14.574219 19.632812 -14.921875 L 19.632812 -21.542969 C 19.632812 -22.050781 19.441406 -22.335938 18.933594 -22.367188 L 11.835938 -22.65625 L 10.40625 -22.65625 C 4.199219 -22.65625 2.066406 -19.3125 2.066406 -16.515625 C 2.066406 -12.949219 4.039062 -10.40625 9.832031 -8.65625 C 12.664062 -7.796875 14.699219 -7.222656 14.699219 -4.421875 C 14.699219 -2.671875 13.648438 -0.128906 11.550781 -0.128906 L 9.992188 -0.128906 L 3.882812 -7.160156 C 3.5625 -7.574219 3.085938 -7.988281 2.863281 -7.988281 L 2.640625 -7.988281 C 2.289062 -7.988281 2.195312 -7.765625 2.195312 -7.414062 L 2.195312 -0.796875 C 2.195312 -0.285156 2.386719 0 2.894531 0.03125 L 9.992188 0.316406 L 11.710938 0.316406 C 17.914062 0.316406 20.492188 -2.800781 20.492188 -6.617188 C 20.492188 -10.691406 16.226562 -12.378906 11.835938 -13.617188 Z M 11.835938 -13.617188 "/></g></g></g><g fill="#000000" fill-opacity="1"><g transform="translate(47.243299, 35.300097)"><g><path d="M 11.453125 0.316406 C 16.640625 0.316406 18.964844 -2.132812 18.964844 -7.414062 L 18.964844 -21.445312 C 18.964844 -21.953125 18.773438 -22.273438 18.265625 -22.273438 L 14.699219 -22.273438 C 14.542969 -22.273438 14.476562 -22.175781 14.476562 -22.050781 L 14.476562 -13.777344 C 14.476562 -13.554688 14.476562 -13.394531 14.699219 -13.140625 L 18.582031 -8.050781 L 18.582031 -7.414062 C 18.582031 -2.003906 15.558594 -0.128906 11.996094 -0.128906 L 11.453125 -0.128906 C 9.003906 -0.128906 7.890625 -1.75 7.890625 -7.414062 L 7.890625 -21.445312 C 7.890625 -21.953125 7.699219 -22.273438 7.191406 -22.273438 L 2.609375 -22.273438 C 2.101562 -22.273438 1.910156 -21.953125 1.910156 -21.445312 L 1.910156 -7.414062 C 1.910156 -2.132812 4.710938 0.316406 11.453125 0.316406 Z M 11.453125 0.316406 "/></g></g></g><g fill="#000000" fill-opacity="1"><g transform="translate(68.112133, 35.300097)"><g><path d="M 11.835938 -13.617188 C 9.257812 -14.351562 7.414062 -15.273438 7.414062 -17.660156 C 7.414062 -19.410156 8.367188 -22.210938 10.5625 -22.210938 L 11.835938 -22.210938 L 17.945312 -15.175781 C 18.265625 -14.765625 18.742188 -14.351562 18.964844 -14.351562 L 19.1875 -14.351562 C 19.535156 -14.351562 19.632812 -14.574219 19.632812 -14.921875 L 19.632812 -21.542969 C 19.632812 -22.050781 19.441406 -22.335938 18.933594 -22.367188 L 11.835938 -22.65625 L 10.40625 -22.65625 C 4.199219 -22.65625 2.066406 -19.3125 2.066406 -16.515625 C 2.066406 -12.949219 4.039062 -10.40625 9.832031 -8.65625 C 12.664062 -7.796875 14.699219 -7.222656 14.699219 -4.421875 C 14.699219 -2.671875 13.648438 -0.128906 11.550781 -0.128906 L 9.992188 -0.128906 L 3.882812 -7.160156 C 3.5625 -7.574219 3.085938 -7.988281 2.863281 -7.988281 L 2.640625 -7.988281 C 2.289062 -7.988281 2.195312 -7.765625 2.195312 -7.414062 L 2.195312 -0.796875 C 2.195312 -0.285156 2.386719 0 2.894531 0.03125 L 9.992188 0.316406 L 11.710938 0.316406 C 17.914062 0.316406 20.492188 -2.800781 20.492188 -6.617188 C 20.492188 -10.691406 16.226562 -12.378906 11.835938 -13.617188 Z M 11.835938 -13.617188 "/></g></g></g><g fill="#000000" fill-opacity="0.302"><g transform="translate(21.660486, 40.284549)"><g><path d="M -1.828125 60.21875 L 63.992188 60.21875 L 63.992188 59.078125 L 25.367188 59.078125 L 63.992188 23.996094 L 63.992188 5.714844 L 0 5.714844 L 0 6.855469 L 54.847656 6.855469 Z M -1.828125 60.21875 "/></g></g></g><g fill="#000000" fill-opacity="0.502"><g transform="translate(26.711275, 35.233761)"><g><path d="M -1.828125 60.21875 L 63.992188 60.21875 L 63.992188 59.078125 L 25.367188 59.078125 L 63.992188 23.996094 L 63.992188 5.714844 L 0 5.714844 L 0 6.855469 L 54.847656 6.855469 Z M -1.828125 60.21875 "/></g></g></g><g fill="#000000" fill-opacity="1"><g transform="translate(31.762065, 30.182973)"><g><path d="M -1.828125 60.21875 L 63.992188 60.21875 L 63.992188 59.078125 L 25.367188 59.078125 L 63.992188 23.996094 L 63.992188 5.714844 L 0 5.714844 L 0 6.855469 L 54.847656 6.855469 Z M -1.828125 60.21875 "/></g></g></g></svg>